<svg xmlns="http://www.w3.org/2000/svg" width="299" height0="86" viewBox="0 0 299 86" version="1.1"><path d="M 32 14.393 C 32 14.609, 32.698 15.054, 33.552 15.382 C 34.442 15.723, 34.843 15.555, 34.493 14.989 C 33.906 14.038, 32 13.583, 32 14.393 M 38.629 14.791 C 38.360 15.226, 39.796 15.425, 41.820 15.233 C 48.004 14.647, 48.733 14.238, 43.809 14.116 C 41.229 14.052, 38.898 14.356, 38.629 14.791 M 209 42.500 C 209 43.325, 209.177 44, 209.393 44 C 209.609 44, 210.045 43.325, 210.362 42.500 C 210.678 41.675, 210.501 41, 209.969 41 C 209.436 41, 209 41.675, 209 42.500 M 121.750 42.662 C 122.438 42.940, 123.563 42.940, 124.250 42.662 C 124.938 42.385, 124.375 42.158, 123 42.158 C 121.625 42.158, 121.063 42.385, 121.750 42.662 M 143 42.383 C 143 42.594, 144.111 42.979, 145.470 43.239 C 146.828 43.499, 147.702 43.326, 147.411 42.856 C 146.899 42.027, 143 41.610, 143 42.383 M 203.750 42.662 C 204.438 42.940, 205.563 42.940, 206.250 42.662 C 206.938 42.385, 206.375 42.158, 205 42.158 C 203.625 42.158, 203.063 42.385, 203.750 42.662 M 139.813 45.683 C 140.534 45.972, 141.397 45.936, 141.729 45.604 C 142.061 45.272, 141.471 45.036, 140.417 45.079 C 139.252 45.127, 139.015 45.364, 139.813 45.683 M 150.872 48.750 C 149.629 50.336, 149.664 50.371, 151.250 49.128 C 152.916 47.821, 153.445 47, 152.622 47 C 152.415 47, 151.627 47.788, 150.872 48.750 M 59.079 49.583 C 59.127 50.748, 59.364 50.985, 59.683 50.188 C 59.972 49.466, 59.936 48.603, 59.604 48.271 C 59.272 47.939, 59.036 48.529, 59.079 49.583 M 171.500 52 C 171.840 52.550, 172.316 53, 172.559 53 C 172.802 53, 173 52.550, 173 52 C 173 51.450, 172.523 51, 171.941 51 C 171.359 51, 171.160 51.450, 171.500 52 M 94.405 54.250 L 92.500 56.500 94.750 54.595 C 96.864 52.805, 97.455 52, 96.655 52 C 96.465 52, 95.453 53.013, 94.405 54.250 M 286.872 58.750 C 285.629 60.336, 285.664 60.371, 287.250 59.128 C 288.916 57.821, 289.445 57, 288.622 57 C 288.415 57, 287.627 57.788, 286.872 58.750 M 261.158 64 C 261.158 65.375, 261.385 65.938, 261.662 65.250 C 261.940 64.563, 261.940 63.438, 261.662 62.750 C 261.385 62.063, 261.158 62.625, 261.158 64 M 112 64 C 112 64.550, 112.477 65, 113.059 65 C 113.641 65, 113.840 64.550, 113.500 64 C 113.160 63.450, 112.684 63, 112.441 63 C 112.198 63, 112 63.450, 112 64 M 119.158 65 C 119.158 66.375, 119.385 66.938, 119.662 66.250 C 119.940 65.563, 119.940 64.438, 119.662 63.750 C 119.385 63.063, 119.158 63.625, 119.158 65 M 84.872 65.750 C 83.629 67.336, 83.664 67.371, 85.250 66.128 C 86.916 64.821, 87.445 64, 86.622 64 C 86.415 64, 85.627 64.787, 84.872 65.750 M 168.079 65.583 C 168.127 66.748, 168.364 66.985, 168.683 66.188 C 168.972 65.466, 168.936 64.603, 168.604 64.271 C 168.272 63.939, 168.036 64.529, 168.079 65.583 M 160.500 66 C 160.160 66.550, 160.359 67, 160.941 67 C 161.523 67, 162 66.550, 162 66 C 162 65.450, 161.802 65, 161.559 65 C 161.316 65, 160.840 65.450, 160.500 66 M 222.500 66 C 222.840 66.550, 223.316 67, 223.559 67 C 223.802 67, 224 66.550, 224 66 C 224 65.450, 223.523 65, 222.941 65 C 222.359 65, 222.160 65.450, 222.500 66 M 140.603 66.833 C 140.320 67.292, 140.743 67.667, 141.544 67.667 C 142.345 67.667, 143 67.292, 143 66.833 C 143 66.375, 142.577 66, 142.059 66 C 141.541 66, 140.886 66.375, 140.603 66.833 M 156.872 69.750 C 155.629 71.336, 155.664 71.371, 157.250 70.128 C 158.213 69.373, 159 68.585, 159 68.378 C 159 67.555, 158.179 68.084, 156.872 69.750 M 170.813 68.683 C 171.534 68.972, 172.397 68.936, 172.729 68.604 C 173.061 68.272, 172.471 68.036, 171.417 68.079 C 170.252 68.127, 170.015 68.364, 170.813 68.683 M 31.813 70.683 C 32.534 70.972, 33.397 70.936, 33.729 70.604 C 34.061 70.272, 33.471 70.036, 32.417 70.079 C 31.252 70.127, 31.015 70.364, 31.813 70.683 M 77.813 71.683 C 78.534 71.972, 79.397 71.936, 79.729 71.604 C 80.061 71.272, 79.471 71.036, 78.417 71.079 C 77.252 71.127, 77.015 71.364, 77.813 71.683 M 228.750 72.662 C 229.438 72.940, 230.563 72.940, 231.250 72.662 C 231.938 72.385, 231.375 72.158, 230 72.158 C 228.625 72.158, 228.063 72.385, 228.750 72.662 M 260.813 72.683 C 261.534 72.972, 262.397 72.936, 262.729 72.604 C 263.061 72.272, 262.471 72.036, 261.417 72.079 C 260.252 72.127, 260.015 72.364, 260.813 72.683" stroke="none" fill="#959595" fill-rule="evenodd"/><path d="M 22 10.102 C 18.317 11.226, 15 13.665, 15 15.249 C 15 15.782, 17.053 15.942, 19.750 15.620 C 30.636 14.320, 34.517 14.422, 34.165 16 C 29.843 35.383, 24.389 57.422, 22.610 62.700 L 20.318 69.500 15.101 70.148 C 9.983 70.783, 6 73.131, 6 75.512 C 6 76.404, 9.159 76.612, 18.250 76.320 C 34.679 75.792, 38.500 75.236, 41.207 72.978 L 43.500 71.067 38.890 71.033 C 36.354 71.015, 32.212 70.717, 29.685 70.370 L 25.092 69.741 26.910 66.120 C 29.938 60.095, 31.091 55.574, 34.947 34.609 L 38.646 14.500 46.073 13.939 C 50.158 13.631, 54.337 13.001, 55.359 12.540 C 57.044 11.781, 57.064 11.616, 55.579 10.784 C 53.103 9.399, 26.102 8.850, 22 10.102 M 224.972 11.250 C 222.396 14.002, 217.644 23.881, 211.449 39.361 C 204.108 57.707, 196.849 67.472, 191.055 66.798 C 189.122 66.572, 188.425 65.848, 188.191 63.823 C 187.713 59.689, 191.646 51.764, 196.578 46.924 C 200.349 43.222, 201.659 42.545, 205.049 42.545 C 208.099 42.545, 208.990 42.181, 208.771 41.023 C 208.322 38.644, 202.659 38.623, 198.032 40.984 C 192.470 43.821, 186.987 49.672, 183.160 56.851 C 179.975 62.827, 174.095 69, 171.588 69 C 170.849 69, 169.667 68.304, 168.961 67.453 C 167.893 66.166, 168.152 64.912, 170.500 60 C 172.730 55.335, 173.074 53.795, 172.140 52.669 C 171.192 51.526, 171.358 51.140, 172.979 50.716 C 175.956 49.937, 175.609 45.624, 172.365 43.073 C 165.167 37.410, 151.751 44.801, 144.933 58.185 C 140.542 66.804, 132.938 71.643, 127.966 68.982 C 125.927 67.890, 125.787 67.253, 126.249 61.147 C 126.526 57.491, 127.512 52.638, 128.440 50.363 L 130.127 46.226 138.563 45.523 C 143.204 45.137, 147 44.411, 147 43.910 C 147 43.410, 143.625 43, 139.500 43 C 135.375 43, 132 42.790, 132 42.534 C 132 42.278, 134.546 37.528, 137.658 31.978 C 142.878 22.671, 143.191 21.762, 141.694 20.266 C 140.198 18.770, 139.817 18.915, 136.786 22.145 C 134.979 24.071, 131.583 29.551, 129.239 34.323 C 126.015 40.890, 124.495 43, 122.989 43 C 121.895 43, 121 43.450, 121 44 C 121 44.550, 121.675 45, 122.500 45 C 124.393 45, 124.404 44.861, 121.905 53.085 C 120.434 57.931, 118.924 60.727, 116.829 62.491 C 112.736 65.934, 112.002 65.670, 111.987 60.750 C 111.980 58.413, 110.881 53.076, 109.544 48.891 C 108.207 44.706, 107.376 40.279, 107.696 39.053 C 108.189 37.170, 107.923 36.877, 105.987 37.162 C 104.223 37.422, 103.316 38.663, 102.055 42.544 C 100.136 48.448, 95.556 54.838, 92.376 56.047 C 91.103 56.531, 89.287 58.823, 88.163 61.363 C 86.125 65.972, 83.651 68, 80.066 68 C 77.531 68, 77.378 65.594, 79.567 60.125 C 81.811 54.517, 81.128 49.166, 77.859 46.736 C 75.506 44.987, 74.804 44.909, 71.415 46.028 C 69.323 46.718, 65.561 49.201, 63.056 51.545 L 58.500 55.806 58.857 51.326 C 59.207 46.926, 59.163 46.852, 56.375 47.173 C 54.343 47.407, 53.339 48.210, 52.842 50 C 52.459 51.375, 50.948 56.274, 49.484 60.886 C 47.322 67.692, 47.073 69.431, 48.160 70.120 C 50.765 71.771, 51.922 70.927, 56.591 63.968 C 62.605 55.005, 67.313 50.784, 70.841 51.193 C 74.147 51.577, 74.625 53.728, 72.952 60.701 C 71.099 68.425, 72.467 71, 78.423 71 C 81.691 71, 83.634 70.358, 85.670 68.607 L 88.452 66.214 90.227 69.132 C 93.782 74.978, 104.170 75.649, 109.065 70.348 C 110.512 68.782, 113.564 66.474, 115.848 65.220 L 120 62.940 120 66.315 C 120 70.069, 122.072 72.488, 126.161 73.508 C 129.313 74.295, 136.544 71.366, 139.405 68.145 C 141.903 65.333, 143 65.434, 143 68.477 C 143 71.802, 146.974 74.384, 150.800 73.544 C 152.384 73.196, 155.396 71.155, 157.493 69.008 L 161.304 65.104 162.902 68.302 C 165.420 73.341, 172.142 73.378, 177.531 68.384 C 179.475 66.582, 180.543 66.129, 180.828 66.984 C 181.744 69.733, 185.125 72, 188.306 72 C 192.047 72, 196.482 69.089, 201.389 63.413 L 204.667 59.621 204.667 64.452 C 204.667 68.006, 205.158 69.642, 206.524 70.642 C 210.156 73.297, 215.008 72.079, 220.240 67.201 C 223.289 64.357, 223.199 64.330, 224.559 68.500 C 225.296 70.762, 226.239 71.581, 228.389 71.828 C 232.571 72.309, 235.098 71.439, 240.061 67.812 C 242.611 65.948, 245.776 64.539, 247.500 64.501 C 249.150 64.465, 251.512 64.082, 252.750 63.651 C 254.667 62.981, 255 63.212, 255 65.210 C 255 69.231, 257.701 72, 261.622 72 C 265.714 72, 268.413 70.770, 272.316 67.128 C 274.456 65.130, 276.186 64.493, 279.529 64.472 C 283 64.450, 284.566 63.832, 286.963 61.535 C 288.633 59.935, 289.986 57.923, 289.970 57.063 C 289.944 55.762, 289.768 55.793, 288.920 57.250 C 287.666 59.402, 282.815 62, 280.050 62 C 277.514 62, 277.493 62.287, 280.490 55.849 C 281.860 52.907, 282.985 49.038, 282.990 47.250 C 283.002 43.308, 280.006 40, 276.423 40 C 273.556 40, 268 44.897, 268 47.423 C 268 48.487, 267.081 49, 265.174 49 C 262.079 49, 259.194 51.599, 256.607 56.720 C 254.756 60.384, 252.289 62, 248.549 62 L 245.966 62 248.340 57.250 C 251.629 50.668, 252.315 47.175, 250.960 43.904 C 248.635 38.292, 240.025 39.304, 237.438 45.494 C 236.320 48.169, 235.384 49, 233.487 49 C 230.339 49, 227.749 51.588, 224.520 57.961 C 221.718 63.491, 215.198 68.674, 212.398 67.599 C 211.006 67.065, 210.852 66.023, 211.420 61.001 C 212.311 53.125, 214.471 47.083, 222.940 28.767 C 226.823 20.370, 230 12.487, 230 11.250 C 230 8.348, 227.687 8.349, 224.972 11.250 M 242.557 45.223 C 240.313 48.425, 240.728 59, 243.096 59 C 244.396 59, 247.925 51.566, 248.174 48.305 C 248.584 42.921, 245.395 41.171, 242.557 45.223 M 274.700 44.779 C 271.507 48.308, 271.684 58.500, 274.939 58.500 C 276.627 58.500, 280.187 49.408, 279.800 46.089 C 279.431 42.929, 276.951 42.292, 274.700 44.779 M 159.077 47.549 C 154.205 51.951, 148.704 62.542, 149.172 66.621 C 149.867 72.680, 155.307 69.697, 163.732 58.637 C 166.303 55.262, 168.799 52.228, 169.278 51.895 C 169.756 51.562, 170.002 49.762, 169.824 47.895 C 169.538 44.893, 169.132 44.464, 166.317 44.192 C 163.815 43.949, 162.268 44.666, 159.077 47.549 M 98.840 52.447 L 95.264 57.878 97.882 60.317 C 100.357 62.622, 104.192 65, 105.434 65 C 106.881 65, 104.797 49.594, 103.102 47.758 C 102.725 47.350, 100.807 49.461, 98.840 52.447 M 232.652 55 C 227.015 66.777, 231.068 72.991, 238.914 64.602 C 241.192 62.167, 241.234 61.916, 239.644 60.159 C 238.717 59.135, 237.357 56.318, 236.621 53.899 L 235.284 49.500 232.652 55 M 264.265 54.392 C 261.097 60.913, 260.488 65.345, 262.487 67.344 C 264.328 69.186, 266.624 68.458, 270.713 64.736 L 272.926 62.721 270.951 60.210 C 269.864 58.829, 268.699 55.967, 268.360 53.850 C 268.021 51.732, 267.442 50, 267.071 50 C 266.701 50, 265.438 51.976, 264.265 54.392 M 93 63.826 C 93 67.973, 96.981 71.383, 100.835 70.536 C 105.393 69.535, 105.426 67.496, 100.918 65.463 C 98.757 64.488, 96.486 63.086, 95.872 62.346 C 94.096 60.206, 93 60.771, 93 63.826" stroke="none" fill="#f7f7f7" fill-rule="evenodd"/></svg>